# xmcd
#
# Track frame offsets: 
#        150
#        11952
#        23810
#        39725
#        52265
#        66030
#        81052
#        91192
#        106817
#        116727
#        133840
#        145305
#        157532
#        167965
#        186200
#        196007
#
# Disc length: 2806 seconds
#
# Revision: 1
# Processed by: cddbd v1.5.2PL0 Copyright (c) Steve Scherf et al.
# Submitted via: ExactAudioCopy v1.0b1
#
DISCID=d60af410
DTITLE=Country - Kocabka naram...nych pisnicek
DYEAR=1900
DGENRE=Country
TTITLE0=Kocabka(Stara archa)
TTITLE1=Rosa na kolejich
TTITLE2=Rekni, kde ty kytky jsou
TTITLE3=Slavny vitr
TTITLE4=Ovecka(Blaznova ukolebavka)
TTITLE5=Poutnik s kytarou
TTITLE6=Skladanka
TTITLE7=Jarni kral
TTITLE8=Kamarad
TTITLE9=Navrat do detstvi
TTITLE10=Suzanne
TTITLE11=Hraz
TTITLE12=Inzerat
TTITLE13=Snehulak
TTITLE14=Nahodny lasky
TTITLE15=Vyznani
EXTD=
EXTT0=
EXTT1=
EXTT2=
EXTT3=
EXTT4=
EXTT5=
EXTT6=
EXTT7=
EXTT8=
EXTT9=
EXTT10=
EXTT11=
EXTT12=
EXTT13=
EXTT14=
EXTT15=
PLAYORDER=
